<svg width="275" height="280" viewBox="0 0 275 280" fill="none" xmlns="http://www.w3.org/2000/svg">
<path d="M178.79 80.8375C178.79 36.6547 214.607 0.837463 258.79 0.837463H275V277.441H178.79V80.8375Z" fill="white"/>
<path d="M274.882 277.713H44.1996V279.224H274.882V277.713Z" fill="#353A48"/>
<path d="M122.512 217.263C124.513 201.647 117.243 175.673 114.63 168.535C112.199 161.885 109.516 151.856 109.471 147.176C109.465 146.862 109.475 146.547 109.501 146.234C109.484 145.395 109.213 144.582 108.726 143.901L107.385 149.352L103.947 142.436L105.183 139.589C104.813 139.212 104.432 138.829 104.042 138.451C101.315 135.865 98.4612 133.419 95.4903 131.121V130.114L67.9685 136.663L67.8184 136.778C65.7136 138.625 64.0756 140.949 63.0396 143.559C62.8395 144.037 62.6493 144.566 62.4692 145.07L64.5358 146.959L61.8287 147.347C61.8287 147.453 61.7786 147.564 61.7586 147.675L65.3865 156.027L62.289 162.263C62.4592 162.979 62.6543 163.714 62.8745 164.465C63.2898 165.88 63.7852 167.356 64.3757 168.893C66.5874 174.64 65.1213 180.167 61.3733 183.169C57.6253 186.171 51.6706 198.951 58.7612 207.218C65.8518 215.485 64.731 225.625 61.7636 232.013C58.8613 238.214 53.8523 246.894 64.1555 258.057C64.4657 258.389 64.786 258.727 65.1213 259.064H81.169L81.259 258.827C81.3291 258.656 81.4292 258.394 81.5593 258.057C82.8353 254.792 86.9435 244.365 89.7507 238.41C91.9575 233.725 95.125 223.862 96.0958 211.797C96.2659 212.054 96.441 212.301 96.5962 212.558C98.0373 214.603 99.5985 216.462 100.975 218.27C105.979 224.819 103.417 226.396 100.804 239.932C98.8429 250.082 103.867 255.503 106.494 257.563C106.965 257.941 107.467 258.278 107.995 258.57L121.506 258.067C121.581 257.916 121.651 257.744 121.721 257.563C123.953 251.407 121.121 228.119 122.512 217.263Z" fill="#353A48"/>
<path d="M67.468 136.859V127.343H68.9692V134.955L94.019 129.101L91.6872 122.275L93.1033 121.787L95.9806 130.194L67.468 136.859Z" fill="#353A48"/>
<path d="M104.427 85.3249C102.117 82.9363 99.3091 81.0926 96.2065 79.9263C93.1038 78.76 89.7831 78.3001 86.4829 78.5797L78.6667 79.2345L78.7918 80.7458L86.603 80.0909C89.6831 79.8276 92.7829 80.2554 95.679 81.3434C98.5751 82.4314 101.195 84.1525 103.351 86.3828L136.723 120.794L116.347 141.785L104.782 125.484L115.421 117.323L95.44 98.7549L91.9372 87.3248L90.5061 87.7681L100.014 118.925L62.4839 128.27C62.7691 120.87 63.7399 95.2287 63.4847 93.934L62.0135 94.2413C62.0936 94.7451 62.0136 98.624 61.8584 103.913L61.6182 103.757L46.126 127.62L62.2738 136.259L54.8179 155.493L21.6866 137.609L44.1544 93.6217C45.4092 91.1515 47.2103 89.0042 49.419 87.3448C51.6277 85.6855 54.1852 84.5584 56.8945 84.0504L66.357 82.2571L66.0768 80.7458L56.6143 82.5593C53.6808 83.1116 50.9122 84.3338 48.5214 86.1319C46.1306 87.93 44.1813 90.2562 42.8234 92.9316L19.675 138.239L55.5985 157.628L64.1552 135.554L48.2777 127.091L61.7483 106.296C61.5282 113.349 61.2079 122.255 60.9327 129.242L60.8927 130.249L101.925 120.038L96.3207 101.657L113.094 117.243L102.716 125.202L116.171 144.163L138.824 120.794L104.427 85.3249Z" fill="#353A48"/>
<path d="M67.8982 148.017L63.0393 143.559L61.5732 142.204L60.6224 141.332L57.2998 150.319L57.7402 152.097L61.4631 167.296L62.8642 164.475L67.0375 156.077L63.7899 148.606L67.8982 148.017ZM65.3962 156.037L62.2988 162.273L61.9635 162.953L58.8761 150.42L61.2629 143.967L62.4789 145.08L64.5455 146.969L61.8384 147.357L61.6382 147.387L61.7683 147.684L65.3962 156.037Z" fill="#353A48"/>
<path d="M106.844 128.633L105.903 129.675L101.615 134.436L105.538 135.005L104.037 138.451L102.286 142.481L107.855 153.699L109.466 147.181L111.743 137.932L112.053 136.662L106.844 128.633ZM108.726 143.901L107.385 149.352L103.947 142.435L105.183 139.589L107.685 133.786L104.607 133.348L106.634 131.091L110.427 136.909L108.726 143.901Z" fill="#353A48"/>
<path d="M71.2258 259.895C66.8824 256.067 67.4178 242.032 71.1057 236.723C74.2582 232.189 76.53 214.88 69.2292 208.513C66.8173 206.412 65.5113 203.858 65.3512 200.956C65.0209 194.997 69.4194 188.866 73.1723 184.781C78.7818 178.66 74.5684 167.548 74.5234 167.437L75.9245 166.883C76.1147 167.386 80.5282 178.973 74.2732 185.809C71.3659 188.982 66.5321 195.158 66.8473 200.871C66.9287 202.133 67.2696 203.365 67.8485 204.488C68.4273 205.611 69.2315 206.601 70.21 207.394C78.2163 214.386 75.7944 232.637 72.3367 237.619C69.0941 242.279 68.4836 255.498 72.2166 258.777L71.2258 259.895Z" fill="#E1E9F1"/>
<path d="M81.9045 259.155L80.5534 258.49C91.0617 236.828 94.6396 218.245 95.8055 206.482C97.3067 191.43 95.5303 180.932 93.5537 176.519C88.9951 166.313 92.3678 153.382 92.5129 152.843L93.964 153.236C93.929 153.362 90.5863 166.197 94.9248 175.905C99.1982 185.456 101.635 218.381 81.9045 259.155Z" fill="#E1E9F1"/>
<path d="M77.8213 273.683L83.826 258.067H61.9237L62.9245 277.713L62.9996 279.224H65.7517L66.2521 277.713L66.7926 276.091L69.4046 278.72H83.9812V273.683H77.8213ZM66.137 273.29L64.6759 277.713H64.4257L63.505 259.578H81.6343L75.6295 275.194H82.48V277.209H70.0301L66.137 273.29Z" fill="#353A48"/>
<path d="M118.854 273.179L124.858 257.563H102.956L103.997 277.713L104.047 278.721H106.799L107.134 277.713L107.84 275.587L110.452 278.217H125.013V273.179H118.854ZM107.169 272.786L105.708 277.209H105.458L104.537 259.074H122.667L116.662 274.69H123.512V276.705H111.062L107.169 272.786Z" fill="#353A48"/>
<path d="M70.3351 100.07L69.1042 99.2035C70.205 97.6218 70.6054 96.317 70.3001 95.4405C70.1825 95.1727 70.0083 94.9339 69.7897 94.7408C69.571 94.5476 69.3132 94.4048 69.0341 94.3222L69.3994 92.8563C69.912 93.0005 70.3856 93.2594 70.785 93.6135C71.1844 93.9676 71.4993 94.4079 71.7062 94.9015C72.2166 96.2818 71.7563 98.0248 70.3351 100.07Z" fill="#00B9C0"/>
<path d="M52.9565 96.8257C49.6339 95.7124 48.523 92.4582 48.4529 92.292L49.8741 91.7882C49.8741 91.7882 50.8098 94.4732 53.3768 95.3447L52.9565 96.8257Z" fill="#00B9C0"/>
<path d="M43.7992 115.707L42.5983 114.8C43.2488 113.923 49.1034 106.301 53.5419 108.533L52.8714 109.883C50.0442 108.452 45.3655 113.606 43.7992 115.707Z" fill="#00B9C0"/>
<path d="M40.7918 106.941L40.6017 105.43C44.0144 105.001 44.9551 100.533 44.9651 100.488L46.4363 100.785C46.3913 101.022 45.2804 106.372 40.7918 106.941Z" fill="#00B9C0"/>
<path d="M33.0208 136.748C32.3453 135.388 29.9484 134.764 29.0827 134.643L29.2929 133.131C29.453 133.157 33.201 133.721 34.3619 136.063L33.0208 136.748Z" fill="#00B9C0"/>
<path d="M32.0549 126.995L31.3243 125.676C31.3643 125.65 35.4425 123.323 35.4425 120.29H36.9437C36.9437 124.215 32.255 126.885 32.0549 126.995Z" fill="#00B9C0"/>
<path d="M47.502 134.144C46.226 130.723 39.3605 131.595 39.2955 131.625L39.0953 130.114C39.4256 130.074 47.2118 129.106 48.9031 133.64L47.502 134.144Z" fill="#00B9C0"/>
<path d="M45.2004 147.745V146.234C47.3571 146.234 52.9565 145.639 52.9565 142.959H54.4577C54.4577 147.69 45.5807 147.745 45.2004 147.745Z" fill="#00B9C0"/>
<path d="M39.446 142.153L37.9948 141.755C38.0999 141.368 39.0757 137.962 40.9972 137.333C41.3752 137.216 41.7768 137.202 42.1621 137.29C42.5475 137.379 42.9032 137.567 43.1939 137.836L42.2532 139.015C41.8078 138.657 41.5576 138.738 41.4626 138.768C40.6069 139.04 39.7562 140.909 39.446 142.153Z" fill="#00B9C0"/>
<path d="M75.234 120.87C71.9414 120.87 68.0633 118.557 67.8331 118.421L68.6037 117.122C70.5253 118.285 75.8995 120.764 77.6109 118.341L78.8318 119.217C77.9762 120.436 76.6551 120.87 75.234 120.87Z" fill="#00B9C0"/>
<path d="M87.9043 105.012L86.5632 104.337C86.6406 104.181 86.6841 104.011 86.691 103.837C86.6979 103.664 86.668 103.49 86.6032 103.329C85.9827 101.622 82.6601 99.8685 81.4341 99.3395L82.0246 97.9492C82.525 98.1708 87.0286 100.186 88.0294 102.81C88.1614 103.166 88.2184 103.545 88.1969 103.924C88.1754 104.303 88.0757 104.674 87.9043 105.012Z" fill="#00B9C0"/>
<path d="M78.1765 111.228C75.5494 111.228 71.7564 108.639 71.296 108.316L72.1467 107.077C73.838 108.251 77.0756 109.999 78.5468 109.681C78.657 109.666 78.7623 109.626 78.855 109.564C78.9477 109.502 79.0254 109.42 79.0822 109.324L80.3732 110.1C80.2101 110.372 79.9923 110.606 79.7338 110.788C79.4753 110.971 79.1817 111.096 78.872 111.157C78.6432 111.205 78.4101 111.229 78.1765 111.228Z" fill="#00B9C0"/>
<path d="M89.9859 118.835L88.4847 118.724C88.5197 118.22 88.89 113.847 90.9867 112.135C91.3111 111.867 91.6875 111.672 92.0917 111.56C92.4959 111.448 92.9189 111.422 93.3335 111.485L93.1234 112.996C92.9116 112.963 92.6954 112.976 92.4891 113.035C92.2828 113.093 92.0913 113.195 91.9274 113.334C90.5763 114.417 90.0659 117.671 89.9859 118.835Z" fill="#00B9C0"/>
<path d="M84.9367 91.1282C84.7281 91.1291 84.5212 91.0915 84.3262 91.0174C82.785 90.4431 82.1144 87.743 81.9993 87.209L83.4605 86.8765C83.6857 87.884 84.2961 89.3953 84.8466 89.6018C84.8916 89.6018 85.0117 89.6623 85.2819 89.4608L86.1826 90.6698C85.8292 90.9573 85.391 91.1185 84.9367 91.1282Z" fill="#00B9C0"/>
<path d="M100.994 89.0581H99.4933C99.4933 87.1841 95.7453 84.4538 93.3834 83.1743L94.094 81.8444C94.7995 82.2272 100.994 85.6829 100.994 89.0581Z" fill="#00B9C0"/>
<path d="M106.679 104.664C105.468 103.239 104.913 101.838 105.038 100.503C105.125 99.553 105.569 98.672 106.279 98.0399L107.22 99.2187L106.749 98.6293L107.225 99.2137C106.82 99.5942 106.572 100.114 106.529 100.67C106.459 101.576 106.889 102.589 107.82 103.692L106.679 104.664Z" fill="#00B9C0"/>
<path d="M124.934 116.094L123.592 115.419C124.733 113.122 119.95 110.382 119.9 110.382L120.62 109.052C120.87 109.188 126.74 112.482 124.934 116.094Z" fill="#00B9C0"/>
<path d="M112.724 112.261C110.367 109.888 112.494 105.53 112.584 105.344L113.925 106.019C113.424 107.027 112.464 109.863 113.785 111.193L112.724 112.261Z" fill="#00B9C0"/>
<path d="M111.253 127.404L110.252 126.275C110.577 125.983 113.495 123.414 115.861 123.998C116.36 124.135 116.814 124.399 117.181 124.764C117.549 125.13 117.816 125.584 117.958 126.084L116.557 126.588C116.197 125.62 115.676 125.494 115.506 125.449C114.15 125.132 111.928 126.794 111.253 127.404Z" fill="#00B9C0"/>
<path d="M116.887 134.738C116.466 134.738 116.046 134.704 115.631 134.637L115.876 133.126C116.091 133.161 121.17 133.932 122.021 129.202L123.522 129.474C122.747 133.67 119.339 134.738 116.887 134.738Z" fill="#00B9C0"/>
<path d="M126.249 121.369L125.274 120.22C125.494 120.029 127.49 118.366 129.392 118.754C129.843 118.854 130.264 119.06 130.62 119.356C130.976 119.652 131.257 120.03 131.439 120.457L130.097 121.132C130.011 120.915 129.876 120.721 129.702 120.565C129.528 120.409 129.321 120.297 129.097 120.235C128.091 120.039 126.7 120.986 126.249 121.369Z" fill="#00B9C0"/>
<path d="M91.1716 73.3306C90.3253 72.7158 89.4201 72.1876 88.4695 71.7539C87.4687 71.2904 87.4687 71.2904 87.4687 69.4115C87.4091 67.7934 87.0827 66.1966 86.5029 64.6863C87.1134 62.1675 87.5488 55.4475 74.7887 55.4626C74.7887 55.4626 70.2551 54.3392 69.4394 57.8957C69.4394 57.8957 69.4394 57.936 69.4394 57.9612C68.6688 61.5983 64.4054 60.4799 63.0244 62.4244C61.6433 64.3689 62.2738 65.3915 62.8642 67.739C63.4547 70.0865 61.4931 69.3611 59.8018 70.6406C58.1105 71.9201 55.9137 73.6631 58.841 75.1039L67.7331 76.9929L66.0968 80.2421C65.8937 80.64 65.7739 81.0756 65.7448 81.522C65.7157 81.9683 65.7778 82.416 65.9275 82.8372C66.0771 83.2584 66.311 83.6442 66.6147 83.9707C66.9184 84.2972 67.2854 84.5576 67.693 84.7356L74.5835 87.7581C74.9958 87.9383 75.4401 88.0325 75.8895 88.0352C76.3312 88.0338 76.768 87.9419 77.1733 87.7653C77.5786 87.5887 77.9441 87.3309 78.2473 87.0077C78.5506 86.6845 78.7855 86.3025 78.9376 85.8851C79.0897 85.4676 79.1558 85.0234 79.1321 84.5794L78.7368 77.0584C79.1153 77.0033 79.4842 76.8948 79.8327 76.736C80.9786 76.7713 83.3354 76.7914 84.2161 76.7914C89.0199 76.7914 91.642 76.2272 92.0223 75.1039C92.1674 74.6706 92.1374 74.0208 91.1716 73.3306ZM79.9778 74.852C79.6796 75.1216 79.329 75.3258 78.9483 75.4515C78.5675 75.5773 78.1649 75.6219 77.766 75.5824C77.1707 75.5284 76.5879 75.3788 76.0397 75.1391C75.9333 74.6086 75.6552 74.1285 75.249 73.7739C73.3175 72.0511 71.7112 70.6708 73.0673 69.3812C74.4234 68.0916 74.1482 66.4192 73.1974 65.059C73.188 65.0463 73.1796 65.0329 73.1724 65.0187C73.0697 64.8577 73.0257 64.6658 73.0479 64.4758C73.0701 64.2857 73.1572 64.1093 73.2942 63.9767C73.4313 63.8441 73.6098 63.7635 73.7993 63.7487C73.9888 63.7338 74.1775 63.7857 74.3333 63.8954L76.3349 65.321L81.8843 65.4923C81.8843 65.5477 81.8843 65.6081 81.8843 65.6686C81.8815 65.692 81.8815 65.7157 81.8843 65.7391V65.86C81.8871 65.8851 81.8871 65.9105 81.8843 65.9356C81.9493 66.9934 81.8843 71.1645 80.8835 73.7336C80.6399 74.1507 80.3345 74.5278 79.9778 74.852ZM76.8853 86.1864C76.6403 86.3598 76.355 86.4667 76.057 86.4967C75.7589 86.5267 75.4583 86.4788 75.184 86.3577L68.2935 83.3352C68.0744 83.2391 67.8771 83.0989 67.7138 82.9232C67.5505 82.7474 67.4247 82.5399 67.3441 82.3134C67.2634 82.0869 67.2297 81.8462 67.245 81.606C67.2603 81.3659 67.3242 81.1315 67.4328 80.9171L69.2593 77.3204L75.264 78.5949C75.6018 78.0147 75.8498 77.3862 75.9996 76.731C76.4003 76.8704 76.8121 76.9749 77.2306 77.0433L77.6309 84.6449C77.6477 84.9445 77.5879 85.2435 77.4574 85.5133C77.3269 85.7832 77.13 86.0149 76.8853 86.1864ZM81.8893 75.2248C82.0286 74.9742 82.1523 74.7151 82.2596 74.449C83.7958 71.8597 83.7608 68.2428 83.4205 65.6132V65.5527L85.2419 65.6081C85.6845 66.8292 85.9343 68.1125 85.9825 69.4115C85.9825 72.0058 86.3078 72.4037 87.834 73.1241C88.7022 73.5178 89.5288 73.9988 90.3009 74.5598L90.421 74.6505C89.3152 75.129 85.4171 75.3255 81.8643 75.2046L81.8893 75.2248Z" fill="#353A48"/>
<path d="M194.318 77.2198C193.675 77.2198 193.046 77.4119 192.511 77.7717C191.977 78.1315 191.56 78.6429 191.314 79.2412C191.067 79.8395 191.003 80.4979 191.128 81.133C191.254 81.7682 191.564 82.3516 192.019 82.8096C192.473 83.2675 193.053 83.5794 193.684 83.7057C194.315 83.8321 194.969 83.7672 195.563 83.5194C196.158 83.2715 196.666 82.8519 197.023 82.3134C197.38 81.7749 197.571 81.1418 197.571 80.4942C197.57 79.6262 197.227 78.7941 196.617 78.1804C196.007 77.5666 195.181 77.2212 194.318 77.2198ZM194.318 82.2574C193.972 82.2574 193.633 82.154 193.345 81.9602C193.057 81.7665 192.833 81.4911 192.7 81.169C192.568 80.8468 192.533 80.4923 192.601 80.1503C192.668 79.8083 192.835 79.4941 193.08 79.2475C193.325 79.0009 193.637 78.833 193.977 78.765C194.317 78.697 194.669 78.7319 194.989 78.8653C195.309 78.9988 195.582 79.2247 195.775 79.5147C195.967 79.8046 196.07 80.1455 196.07 80.4942C196.07 80.9618 195.885 81.4103 195.557 81.741C195.228 82.0716 194.783 82.2574 194.318 82.2574Z" fill="#353A48"/>
<path d="M151.785 84.2722C151.24 84.2722 150.708 84.4347 150.256 84.7392C149.803 85.0436 149.45 85.4763 149.242 85.9826C149.034 86.4888 148.979 87.0459 149.085 87.5834C149.192 88.1208 149.454 88.6145 149.839 89.002C150.224 89.3895 150.714 89.6533 151.248 89.7602C151.782 89.8672 152.335 89.8123 152.838 89.6026C153.341 89.3929 153.771 89.0378 154.073 88.5821C154.376 88.1265 154.537 87.5908 154.537 87.0429C154.536 86.3084 154.245 85.6045 153.729 85.0852C153.214 84.5659 152.514 84.2735 151.785 84.2722ZM151.785 88.3022C151.537 88.3022 151.295 88.2284 151.09 88.09C150.884 87.9516 150.724 87.7549 150.629 87.5248C150.534 87.2947 150.51 87.0415 150.558 86.7972C150.606 86.5529 150.725 86.3285 150.9 86.1523C151.075 85.9762 151.298 85.8563 151.541 85.8077C151.783 85.7591 152.035 85.784 152.263 85.8793C152.492 85.9747 152.687 86.1361 152.825 86.3432C152.962 86.5503 153.036 86.7938 153.036 87.0429C153.036 87.3769 152.904 87.6972 152.669 87.9334C152.435 88.1695 152.117 88.3022 151.785 88.3022Z" fill="#353A48"/>
<path d="M190.816 132.129C189.875 132.129 188.956 132.409 188.175 132.935C187.393 133.461 186.784 134.208 186.424 135.083C186.064 135.957 185.97 136.92 186.153 137.848C186.337 138.776 186.789 139.629 187.454 140.298C188.119 140.968 188.966 141.423 189.888 141.608C190.81 141.793 191.766 141.698 192.635 141.336C193.503 140.973 194.246 140.36 194.768 139.573C195.291 138.786 195.569 137.861 195.569 136.914C195.568 135.645 195.067 134.429 194.176 133.532C193.284 132.635 192.076 132.13 190.816 132.129ZM190.816 140.189C190.172 140.189 189.544 139.997 189.009 139.637C188.474 139.277 188.057 138.766 187.811 138.167C187.564 137.569 187.5 136.911 187.626 136.276C187.751 135.64 188.061 135.057 188.516 134.599C188.971 134.141 189.55 133.829 190.181 133.703C190.812 133.576 191.466 133.641 192.06 133.889C192.655 134.137 193.163 134.557 193.52 135.095C193.877 135.634 194.068 136.267 194.068 136.914C194.067 137.782 193.724 138.614 193.114 139.228C192.504 139.842 191.678 140.187 190.816 140.189Z" fill="#353A48"/>
<path d="M153.286 153.286C152.346 153.286 151.427 153.567 150.645 154.093C149.863 154.618 149.254 155.366 148.894 156.24C148.534 157.115 148.44 158.077 148.623 159.005C148.807 159.934 149.26 160.786 149.924 161.456C150.589 162.125 151.436 162.581 152.358 162.765C153.281 162.95 154.236 162.855 155.105 162.493C155.974 162.131 156.716 161.517 157.238 160.73C157.761 159.943 158.04 159.018 158.04 158.072C158.038 156.803 157.537 155.586 156.646 154.689C155.755 153.792 154.546 153.287 153.286 153.286ZM153.286 161.346C152.643 161.346 152.014 161.154 151.479 160.794C150.944 160.434 150.527 159.923 150.281 159.325C150.035 158.726 149.97 158.068 150.096 157.433C150.221 156.798 150.531 156.214 150.986 155.756C151.441 155.298 152.02 154.987 152.651 154.86C153.282 154.734 153.936 154.799 154.531 155.047C155.125 155.294 155.633 155.714 155.99 156.253C156.348 156.791 156.538 157.424 156.538 158.072C156.537 158.94 156.194 159.772 155.584 160.386C154.975 160.999 154.148 161.345 153.286 161.346Z" fill="#353A48"/>
<path d="M214.084 62.1073H176.324V45.7354H174.823V62.1073H140.526V168.399H171.38L154.192 277.713L154.076 278.459L155.578 278.695L155.733 277.713L172.911 168.399H178.136L178.055 277.713V278.217H179.557V277.713L179.622 168.399H185.847L203.36 277.713L203.581 279.093L205.082 278.852L204.902 277.713L187.388 168.399H214.084V62.1073ZM212.583 166.888H142.027V63.6186H212.583V166.888Z" fill="#353A48"/>
<path d="M155.898 144.889C156.323 145.121 156.769 145.357 157.234 145.594C160.495 147.202 163.835 148.642 167.242 149.906L168.968 150.561C170.556 151.156 172.204 151.762 173.912 152.38L175.348 152.883L177.69 153.73L178.146 153.896L179.647 154.44C181.048 154.944 182.457 155.448 183.875 155.951L185.496 156.551C188.674 157.724 191.876 158.949 195.054 160.238C198.732 161.749 201.199 162.455 202.76 162.455C203.726 162.455 204.346 162.178 204.687 161.634C206.288 159.049 199.182 151.936 182.569 136.789L182.289 136.532L180.502 134.905L179.657 134.139L178.656 133.227L178.461 133.051L178.156 132.774L177.155 131.847C174.888 129.791 172.616 127.726 170.415 125.701C173.257 124.467 175.984 123.313 178.556 122.225L178.676 122.175C179.096 121.993 179.512 121.822 179.922 121.641C182.859 120.402 185.536 119.258 187.928 118.19C188.782 117.807 189.598 117.433 190.375 117.067C197.256 113.823 200.929 111.253 200.093 108.442L198.652 108.876C199.197 110.709 195.434 113.037 189.465 115.827C188.761 116.163 188.027 116.499 187.263 116.835C184.956 117.868 182.399 118.961 179.692 120.109L178.966 120.422L177.965 120.835C175.714 121.792 173.353 122.799 170.885 123.857L169.194 124.588L168.693 124.144C164.6 120.361 160.822 116.764 157.835 113.676C154.412 110.15 153.026 106.226 153.721 102.045C154.862 95.1384 161.377 88.4133 168.043 83.1793C168.438 82.867 168.838 82.5597 169.234 82.2574C173.797 78.8212 178.621 75.7491 183.66 73.069L182.979 71.7189C177.838 74.4261 172.921 77.5424 168.273 81.0383L167.082 81.9602C160.216 87.3554 153.466 94.3878 152.24 101.793C151.465 106.478 152.986 110.83 156.744 114.734C159.746 117.837 163.544 121.449 167.647 125.248C164.54 126.608 161.302 128.069 157.96 129.64C151.955 132.461 149.248 135.096 149.383 137.927C149.533 140.436 151.92 142.677 155.898 144.889ZM158.61 131.051C161.139 129.855 163.606 128.725 166.011 127.661L168.848 126.416C171.445 128.804 174.142 131.252 176.82 133.68L177.615 134.406L178.146 134.91L179.622 136.25L180.538 137.081L180.853 137.368L182.634 138.985C187.668 143.574 192.517 148.052 196.21 151.77C203.636 159.236 203.481 160.692 203.376 160.903C203.346 160.938 202.525 161.734 195.579 158.913C192.122 157.508 188.639 156.188 185.186 154.914L183.59 154.294L179.632 152.858L178.181 152.354H178.131L175.554 151.387L174.117 150.884C172.861 150.43 171.615 149.972 170.415 149.518C169.849 149.312 169.289 149.1 168.733 148.889C165.005 147.522 161.35 145.96 157.784 144.209C157.324 143.977 156.879 143.74 156.458 143.504C153.066 141.62 150.954 139.761 150.869 137.917C150.794 135.811 153.391 133.509 158.61 131.051Z" fill="#353A48"/>
<path d="M190.325 117.112L189.43 116.508V115.873C189.3 112.71 188.564 109.602 187.263 106.72C188.894 105.208 190.465 103.748 191.957 102.377C199.643 95.3248 204.281 91.0479 203.21 88.0859C202.575 86.3479 200.148 85.4815 195.349 85.28C187.773 84.9633 180.184 85.458 172.711 86.756L169.209 82.2978L168.913 81.925C168.678 81.6278 168.453 81.3457 168.248 81.0787C167.342 79.9402 166.651 79.0637 166.181 78.4995C165.35 77.492 165.005 77.0688 164.405 77.5323C163.804 77.9957 164.039 78.3836 165.175 79.9352L165.32 79.8243C165.726 80.3281 166.286 81.0233 167.057 82.0006L168.048 83.2196C168.868 84.2624 169.869 85.5369 171.05 87.0884C164.044 88.5997 158.58 91.0379 157.639 94.6447C156.699 98.2516 160.336 102.201 168.448 106.357C172.386 108.372 176.054 110.321 179.412 112.211C175.623 116.006 172.038 120.004 168.673 124.185C167.772 125.318 166.877 126.477 166.001 127.661C163.072 131.599 160.437 135.751 158.12 140.083C157.464 141.317 156.919 142.446 156.468 143.483C156.253 143.987 156.063 144.441 155.888 144.889C153.741 150.496 154.732 152.949 156.158 153.956C156.949 154.501 157.893 154.774 158.85 154.737C161.577 154.737 165.235 153.085 168.943 150.541C169.444 150.204 169.944 149.846 170.445 149.478C172.016 148.301 173.52 147.034 174.948 145.685C175.562 145.107 176.161 144.516 176.744 143.912C176.78 143.876 176.815 143.846 176.845 143.811C177.28 143.358 177.71 142.899 178.136 142.426C178.646 141.858 179.146 141.277 179.637 140.683C180.137 140.073 180.638 139.448 181.113 138.814C181.308 138.562 181.498 138.31 181.678 138.048C181.859 137.786 182.139 137.413 182.359 137.091L182.554 136.814C186.372 131.207 189.059 124.819 189.394 118.306C196.06 122.87 200.278 127.157 201.214 131.404C201.829 134.214 201.019 137.01 198.712 139.967L199.893 140.894C202.475 137.574 203.396 134.345 202.66 131.086C201.654 126.426 197.331 121.918 190.325 117.112ZM187.868 115.505C186.027 114.326 184.034 113.122 181.889 111.893C183.31 110.489 184.707 109.146 186.082 107.863C187.105 110.29 187.709 112.874 187.868 115.505ZM195.289 86.7912C200.188 86.9978 201.524 87.8894 201.794 88.6047C202.52 90.6197 197.156 95.5515 190.941 101.264C189.543 102.544 188.085 103.887 186.567 105.294C185.803 103.846 184.914 102.469 183.91 101.178C179.907 95.9763 176.524 91.6105 173.762 88.0808C180.875 86.906 188.089 86.4738 195.289 86.7912ZM169.138 105.007C161.848 101.269 158.375 97.8184 159.101 95.0276C159.866 92.0806 165.045 89.8137 172.086 88.4032C174.688 91.7381 178.141 96.1912 182.719 102.115C183.751 103.446 184.654 104.873 185.416 106.377C183.825 107.888 182.189 109.45 180.532 111.097C177.055 109.148 173.267 107.123 169.138 105.007ZM182.009 134.925C181.818 135.222 181.628 135.514 181.428 135.801C181.228 136.088 180.998 136.436 180.778 136.748L180.558 137.051C180.257 137.469 179.952 137.882 179.642 138.285C179.141 138.919 178.641 139.524 178.141 140.128C177.825 140.511 177.5 140.884 177.17 141.252C176.709 141.756 176.244 142.259 175.769 142.763L175.348 143.191C173.321 145.27 171.116 147.165 168.758 148.853C168.258 149.226 167.732 149.569 167.232 149.891C162.568 152.883 158.655 153.921 157.059 152.742C155.753 151.785 155.843 149.256 157.239 145.579C157.409 145.126 157.599 144.657 157.81 144.174C158.27 143.121 158.81 141.987 159.456 140.783C162.172 135.726 165.316 130.915 168.853 126.401C169.52 125.552 170.188 124.712 170.855 123.882C174.097 119.928 177.465 116.296 180.778 112.966C183.09 114.291 185.241 115.586 187.213 116.86L187.908 117.314C187.908 117.616 187.898 117.918 187.878 118.22C187.563 124.069 185.306 129.797 182.009 134.925Z" fill="#00B9C0"/>
<path d="M47.0947 278.691L46.9413 278.878L46.8023 279.044H14.7049L14.5051 278.878L14.284 278.691C7.36526 272.726 20.3469 273.686 17.2013 270.568C13.9916 267.389 12.9217 263.857 17.2013 263.151C19.9581 262.695 22.7114 264.729 24.516 265.291C22.9247 261.004 21.7485 256.578 21.0031 252.071C17.7505 252.343 3.31385 253.395 4.89733 250.259C6.4487 247.183 17.9895 250.789 20.946 251.774C20.5359 249.404 20.1793 246.794 19.9011 243.923C16.4809 244.007 1.48787 244.212 5.60347 241.076C9.50152 238.106 17.4296 242.136 19.869 243.481C19.6835 241.496 19.5373 239.395 19.4374 237.163C16.6771 236.965 1.9622 235.75 4.54426 231.893C7.07282 228.138 17.155 235.195 19.4232 236.838C19.3305 234.655 19.2877 232.352 19.2948 229.929C16.9303 229.177 7.94658 226.249 3.1177 223.621C2.73254 223.409 2.37233 223.201 2.04779 222.996C-0.323849 221.509 -1.01929 220.191 2.04779 219.517C2.4011 219.44 2.75822 219.381 3.1177 219.34C10.7783 218.493 17.3475 226.598 19.2948 229.272C19.2948 226.839 19.3839 224.285 19.523 221.608L20.5929 221.664L20.5395 222.763C21.8412 218.362 24.1379 210.111 26.6558 213.159C29.3234 216.388 22.7613 222.576 20.4681 224.571C20.3706 227.373 20.3433 230.032 20.3861 232.546C23.1928 228.135 31.2849 216.299 34.5018 220.93C37.8756 225.79 24.2699 232.052 20.4075 233.705C20.4075 233.804 20.4075 233.903 20.4075 234.001C20.4646 236.333 20.5716 238.539 20.7285 240.62C22.8005 238.653 34.5874 227.693 35.5646 231.879C36.5418 236.064 23.0359 240.193 20.7499 240.839C20.9567 243.64 21.242 246.218 21.5808 248.581C23.2142 246.558 29.4732 239.296 33.785 241.429C38.3 243.665 24.3483 248.122 21.6343 248.956C22.747 256.56 24.3947 261.932 25.7321 265.358C26.0887 265.217 26.3419 264.864 26.4739 264.21C27.1872 260.678 33.6067 254.321 42.8792 253.614C52.1518 252.908 37.8863 263.504 35.0332 268.449C32.1801 273.393 40.3828 271.274 47.5155 270.568C53.8066 269.946 48.4428 277.017 47.0947 278.691Z" fill="#353A48"/>
</svg>
