<svg width="262" height="183" viewBox="0 0 262 183" fill="none" xmlns="http://www.w3.org/2000/svg">
<path d="M174.079 72.0179L162.346 65.5241L165.992 71.6138L155.3 65.887L155.882 64.7985L162.631 68.4061L158.914 62.2134L173.368 70.2161L175.78 62.8318L159.946 57.6863L160.322 56.5071L177.345 62.0402L174.079 72.0179Z" fill="#353A48"/>
<path d="M53.623 182.889C-18.8973 182.889 -19.6324 182.514 -20 182.333L-19.4466 181.224C-19.4757 181.21 -19.5062 181.199 -19.5375 181.191C-15.7215 182.015 166.244 181.541 261.929 181.162V182.399C261.227 182.399 191.271 182.675 121.927 182.811C94.0337 182.865 71.6127 182.889 53.623 182.889Z" fill="#353A48"/>
<path d="M186.741 146.772L165.034 146.632L161.751 146.611L156.044 151.369L158.018 154.433L162.928 162.06L168.772 158.308L167.607 155.876L171.588 156.498L186.741 146.772ZM165.472 154.292L167.182 157.859L163.3 160.333L158.877 153.46L157.679 151.6L162.197 147.836H163.927L182.566 147.955L171.316 155.175L165.472 154.292Z" fill="#353A48"/>
<path d="M109.335 92.5545L103.966 131.723L96.5323 168.83L68.8622 166.356L84.7621 122.859L88.6855 75.6502L121.724 74.001L147.743 104.924L172.522 138.32L150.633 162.646L134.114 115.643L109.335 92.5545Z" fill="#353A48"/>
<path d="M85.9062 167.882L85.1752 167.387L77.0972 166.802V167.078L76.6842 179.599L83.6265 179.834L84.0395 177.175L86.9593 179.95L105.056 180.581L85.9062 167.882ZM83.1805 174.672L82.5569 178.577L77.9438 178.42L78.2907 168.141L84.7622 168.624L100.728 179.204L87.4631 178.754L83.1805 174.672Z" fill="#353A48"/>
<path d="M120.692 4.94078C120.689 2.82749 119.342 0.949438 117.339 0.266095C115.336 -0.417249 113.119 0.244996 111.821 1.9145C110.676 1.15744 109.228 1.01835 107.96 1.54343C107.063 1.08902 105.995 1.1319 105.139 1.65666C104.282 2.18143 103.76 3.11276 103.76 4.11618C103.76 4.35844 103.791 4.59964 103.855 4.83358C102.447 5.4059 101.469 6.70345 101.306 8.21175C101.144 9.72005 101.825 11.1954 103.078 12.053C102.24 12.6989 101.905 13.8055 102.246 14.8067C102.586 15.8079 103.526 16.4824 104.586 16.4852C104.834 16.4864 105.08 16.4488 105.316 16.3739L104.965 21.4493L104.879 22.6862L104.73 24.8054C104.603 25.5281 104.779 26.2711 105.216 26.8609C105.653 27.4507 106.314 27.8359 107.043 27.9265L113.196 28.6975C113.31 28.7035 113.425 28.7035 113.539 28.6975C114.409 28.6966 115.225 28.2741 115.726 27.5643C116.228 26.8545 116.353 25.9457 116.062 25.127L115.373 23.1644L114.91 21.8698L114.328 20.2206C114.937 20.0814 115.498 19.7842 115.955 19.3589C118.627 16.8975 118.049 12.02 117.541 9.55029C119.442 8.80822 120.693 6.9785 120.692 4.94078ZM114.91 25.5558C115.08 26.0273 114.991 26.5528 114.677 26.9432C114.362 27.3336 113.867 27.5327 113.37 27.4689L107.212 26.6979C106.817 26.6479 106.46 26.4372 106.225 26.1157C105.991 25.7941 105.899 25.3901 105.973 24.9992L106.572 16.444C107.646 17.5201 110.421 20.0392 113.052 20.2825L114.91 25.5558ZM116.347 9.83478C116.81 12.0942 117.322 16.4316 115.108 18.4271C114.777 18.7417 114.358 18.9499 113.907 19.025C113.718 19.0555 113.527 19.0652 113.337 19.0538C110.884 18.9384 107.968 16.077 107.233 15.3142L107.423 12.2509C108.492 11.6663 109.247 10.6402 109.488 9.44722H109.57C110.549 9.44665 111.496 9.09888 112.242 8.46595H112.329C113.237 9.36317 114.459 9.87318 115.736 9.88838C115.935 9.88655 116.133 9.87416 116.331 9.85127L116.347 9.83478Z" fill="#353A48"/>
<path d="M66.9377 82.3501L66.756 83.6365L65.8681 89.8045L65.8144 90.1797L65.6079 89.7262L62.8822 83.7602L62.2957 88.6954L62.1471 89.9447L61.54 95.0407L50.6949 91.2764L52.4873 86.939L52.9581 85.7887H52.9622L55.9523 78.5446L56.4272 77.3984L56.4809 77.2623L57.6249 77.7365L57.5464 77.9261L57.0715 79.0723L54.1475 86.1598L53.6726 87.3101L52.3386 90.5343L60.491 93.3668L60.9494 89.5695L61.0939 88.3202L61.9199 81.3565L62.0768 80.0577L62.176 79.2249L62.6922 80.3463L63.4851 82.0945L65.1866 85.8258L65.5831 83.084L65.7648 81.7976L66.9377 82.3501Z" fill="#353A48"/>
<path d="M140.358 45.2637L122.621 23.3129L122.472 23.1273L114.902 21.8904H114.807L114.6 23.1273L115.373 23.2551L121.803 24.3271L139.64 46.3975L162.486 52.9943L151.666 70.7232L132.446 59.1335L123.083 48.9744C123.062 45.2431 123.149 41.619 123.414 38.3082L122.175 38.2093C121.497 46.715 121.985 57.1751 122.418 66.4229C122.534 68.8514 122.641 71.1603 122.728 73.3867C120.473 73.3578 113.911 73.7083 103.165 74.4587C98.9028 74.7555 94.1989 75.1019 90.2549 75.407C87.7522 75.6007 86.2778 75.7162 85.3982 75.8193C86.7899 70.9211 93.5588 47.1149 96.7305 36.7002L100.369 30.2601L99.2869 29.6499L97.9653 31.9918L95.5907 36.2014L86.4802 52.347L70.2333 83.9704L66.9294 82.4161L65.7648 81.7976L62.6881 80.3463L62.0768 80.0577L57.534 77.9261L56.4148 77.3984L55.5888 77.0149L73.3472 50.4257L93.1293 23.8777L104.858 22.7027L105.246 22.6655L105.122 21.4286H104.945L92.4602 22.6655L72.3726 49.7124L53.7882 77.5056L55.9564 78.5281L57.0921 79.0723L61.9406 81.3565L63.5058 82.0945L65.6037 83.084L66.7766 83.6365L70.8115 85.5372L87.5952 52.8665L94.0048 41.52C90.3499 53.856 84.8448 73.2671 84.0601 76.0295C84.0391 76.0472 84.021 76.0681 84.0064 76.0914L83.7627 76.4006L83.9403 76.7511C84.0548 76.9771 84.2944 77.1122 84.5474 77.0933H84.5928H85.0471V77.0314C85.7162 76.9572 86.9592 76.8459 88.6029 76.714C97.3376 76.0089 117.33 74.6525 122.212 74.5865C122.556 74.5694 122.901 74.579 123.244 74.6153L124.029 74.7968L124 73.9722C123.909 71.5272 123.789 68.9957 123.665 66.3158C123.43 61.3228 123.178 55.967 123.104 50.7679L131.657 60.0488L152.079 72.3766L155.854 66.1921L156.498 65.1366L160.855 57.9914L161.516 56.9029L164.386 52.1986L140.358 45.2637Z" fill="#353A48"/>
<path d="M70.8033 98.4298L72.8187 91.9691L65.8681 89.8045L65.6079 89.7262L62.304 88.6954L61.1023 88.3202L60.9536 89.5571L62.1554 89.9323L71.2741 92.7689L69.6222 98.0505L44.876 90.3034L46.528 85.0672L52.508 86.9266L53.6933 87.2977L54.1682 86.1474L52.9829 85.7763L45.7185 83.5169L43.7155 89.9364L36.0794 87.5451L26.494 118.055L70.3779 131.793L79.9633 101.262L70.8033 98.4298ZM69.5396 130.28L28.0221 117.276L36.8558 89.1077L43.3108 91.128L44.492 91.499L69.2339 99.242L70.4192 99.6131L78.3733 102.087L69.5396 130.28Z" fill="#353A48"/>
<path d="M190.874 181.817H228.043C228.043 181.817 237.129 171.098 228.869 171.922C220.609 172.747 211.111 175.221 214.415 169.448C217.718 163.676 234.238 151.307 223.5 152.132C212.763 152.956 205.329 160.378 204.503 164.501C203.677 168.624 198.721 162.439 193.765 163.264C188.809 164.089 190.048 168.212 193.765 171.922C197.482 175.633 181.789 174.396 190.874 181.817Z" fill="#353A48"/>
</svg>
