<!DOCTYPE svg PUBLIC "-//W3C//DTD SVG 1.1//EN" "http://www.w3.org/Graphics/SVG/1.1/DTD/svg11.dtd">

<!-- Uploaded to: SVG Repo, www.svgrepo.com, Transformed by: SVG Repo Mixer Tools -->
<svg version="1.1" id="Uploaded to svgrepo.com" xmlns="http://www.w3.org/2000/svg" xmlns:xlink="http://www.w3.org/1999/xlink" width="800px" height="800px" viewBox="0 0 32 32" xml:space="preserve" fill="#ffffff" stroke="#ffffff">

<g id="SVGRepo_bgCarrier" stroke-width="0"/>

<g id="SVGRepo_tracerCarrier" stroke-linecap="round" stroke-linejoin="round"/>

<g id="SVGRepo_iconCarrier"> <style type="text/css"> .linesandangles_een{fill:#ffffff;} </style> <path class="linesandangles_een" d="M25,6l-6-1c0,1.657-1.343,3-3,3s-3-1.343-3-3L7,6l-4,7l5,3v12h16V16l5-3L25,6z M22,12v14H10V12 H8v1.668l-2.292-1.375l2.557-4.476l3.28-0.547C12.374,8.889,14.06,10,16,10s3.626-1.111,4.454-2.73l3.28,0.547l2.557,4.476 L24,13.668V12H22z"/> </g>

</svg>